<svg xmlns="http://www.w3.org/2000/svg" viewBox="0 0 32 32" id="camera"><path style="text-indent:0;text-align:start;line-height:normal;text-transform:none;block-progression:tb;marker:none;-inkscape-font-specification:Sans" d="M42.045 1024.863a2.505 2.505 0 0 0-2.5 2.5v15c0 1.377 1.123 2.5 2.5 2.5h17.062c1.377 0 2.375-1.163 2.375-2.5v-2.187l2.219 2.531c.096.101.235.16.375.156h4.906a.52.52 0 0 0 .5-.5v-15a.52.52 0 0 0-.5-.5h-5a.506.506 0 0 0-.281.188l-2.219 2.844v-2.532c0-1.177-.845-2.08-1.969-2.312a.49.49 0 0 0-.062-.031c-.014 0-.017-.03-.031-.031a.503.503 0 0 0-.22-.094.49.49 0 0 0-.062-.031h-.03c-8.033-.01-9.031.01-17.063 0z" color="#000" font-family="Sans" font-weight="400" overflow="visible" transform="translate(-36.513 -1016.862)"></path></svg>